<?xml version="1.0" encoding="UTF-8"?><svg id="Layer_1" xmlns="http://www.w3.org/2000/svg" viewBox="0 0 1561.353 288"><path d="M149.41,0c.8393,.1898,1.671,.4971,2.5191,.5525,35.0022,2.2865,65.4325,15.2755,90.8769,39.4203,22.6083,21.4535,36.6953,47.6732,42.3762,78.3657,2.3869,12.8958,2.9677,25.885,1.759,38.9245-5.0555,54.5407-39.7103,98.6525-85.7908,118.7207-12.6852,5.5245-25.9026,9.0732-39.6086,10.8344-2.3751,.3052-4.7768,.3983-7.1609,.6408-1.1831,.1203-2.3545,.357-3.5311,.5411h-14.3978c-2.7658-.3338-5.5273-.7102-8.2982-.9942-14.0967-1.4446-27.6488-4.9986-40.6625-10.5751-4.0171-1.7214-7.9283-3.6899-11.888-5.5452,.0576-.1499,.1152-.2997,.1727-.4495,.2763,.0565,.5557,.101,.8284,.1713,6.2844,1.6218,12.6751,2.6243,19.1402,3.0808,8.0708,.5699,16.1354,.3955,24.1956-.3787,9.0444-.8688,17.7894-2.9499,26.3031-6.0906,1.1282-.4162,1.8607-1.0761,2.4438-2.1171,4.9223-8.788,9.8912-17.55,14.8287-26.3296,.2389-.4247,.3151-.941,.6253-1.9077-1.1888,.7417-1.932,1.1814-2.6509,1.6577-5.9555,3.946-12.2402,7.2258-19.0013,9.5851-8.5375,2.9792-17.3567,4.2151-26.3534,4.5188-8.4425,.285-16.7794-.3775-24.9288-2.6728-15.1513-4.2675-26.7243-13.0205-33.8717-27.2599-3.3755-6.7248-5.2014-13.8954-6.1215-21.3196-.2318-1.8702-.2874-3.7622-.449-5.9883h3.5719c35.513,0,71.0259,.0017,106.5389-.0077,1.1638-.0003,2.3276-.1141,3.6389-.1826,.0786-1.1323,.19-1.9922,.1894-2.8522-.0033-5.0434-.2709-10.0643-1.1898-15.0399-3.1797-17.2175-11.6875-31.1424-25.846-41.4708-10.862-7.9236-23.1544-12.0785-36.5105-13.1741-14.9289-1.2246-29.3338,.7649-43.0303,7.0684-.4422,.2035-.939,.2882-1.7575,.5314,3.4815-9.1488,9.849-14.3015,18.9801-15.8503,4.1566-.7051,8.4346-.7304,12.6629-.9697,7.8295-.443,15.6507-1.0652,23.274-2.9553,26.9127-6.6727,45.4551-22.7923,54.7801-49.1012,2.0663-5.8297,3.2271-11.8731,3.1378-18.1-.0104-.7239,.3186-1.6224-.5672-2.0861-.1603,.0207-.2609,.0035-.3153,.0458-.2503,.1947-.5115,.3839-.7261,.6147-3.9251,4.2228-8.8145,6.8046-14.2667,8.4592-5.3867,1.6347-10.9344,2.3209-16.509,2.806-8.0412,.6998-16.1091,1.1361-24.1299,2.0121-8.4092,.9184-16.4408,3.1924-23.7274,7.7346-15.0338,9.3714-23.6784,22.731-25.4491,40.4302-.0787,.7864-.0959,1.6137,.06,2.381,.2536,1.2481,1.1296,1.5752,2.0954,.7397,.8363-.7235,1.509-1.6426,2.221-2.5026,4.1286-4.987,8.0064-10.2079,12.4237-14.9236,7.36-7.8572,16.876-12.3079,26.9761-15.4053,5.9403-1.8217,12.0892-2.983,18.1715-4.3167,8.1364-1.7841,16.1572-3.8838,23.6292-7.6936,.1533-.0782,.3533-.0649,.9139-.1573-7.5973,5.1456-15.4318,8.8709-23.8137,11.4305-5.9581,1.8195-11.9877,3.413-17.9107,5.3373-13.1183,4.2619-24.8683,10.8519-34.601,20.7931-9.0744,9.2688-15.9011,19.9877-20.7419,31.9901-.5326,1.3206-1.2599,2.2863-2.4796,3.0667-2.0837,1.3331-4.1247,2.765-6.0273,4.3439-9.5497,7.9256-16.4243,17.8415-21.2626,29.1918-5.9455,13.9479-7.7949,28.4308-5.3285,43.4272,.1299,.7896,.2645,1.5785,.3969,2.3677-.6464-.3832-.9294-.8476-1.1865-1.326C7.3696,194.0354,1.808,174.807,.3934,154.44c-.9572-13.7808-.2361-27.5227,2.9214-41.0124C13.4233,70.2415,38.007,37.9764,76.9713,16.834,95.1522,6.9689,114.7638,1.8482,135.3921,.5612c.8416-.0525,1.6668-.3681,2.4997-.5612,3.8394,0,7.6788,0,11.5182,0Z" style="fill:#fff;"/><path d="M1561.353,109.44c-.4171,.8272-.8863,1.6325-1.2438,2.4847-13.2249,31.5307-26.4242,63.072-39.6799,94.5898-1.2981,3.0869-2.7296,6.1542-4.4485,9.0211-6.7621,11.2778-16.7838,17.3823-29.8789,18.662-9.056,.885-17.6442-.8647-26.0537-3.9836-.282-.1046-.5286-.305-.9475-.553,.5359-.4353,.9431-.7981,1.3819-1.1177,4.3946-3.2007,8.8219-6.3574,13.1748-9.614,1.1877-.8887,2.1194-.9364,3.4601-.2705,8.7437,4.3422,17.1673,2.5245,23.4228-5.0129,3.7747-4.5483,6.0663-9.9025,8.3466-15.2959,1.2427-2.9391,1.2413-5.0847-1.4448-7.2282-2.7944-2.2301-4.3593-5.4619-5.8336-8.6834-8.6444-18.8896-17.2973-37.7753-25.9699-56.652-1.0664-2.321-2.2101-4.6109-3.4196-6.8606-2.0398-3.7939-4.6755-7.0611-8.5467-9.1646-.1774-.0963-.2837-.3232-.5908-.6893,1.3702-.1033,2.5361-.2352,3.7051-.2716,4.9537-.1543,9.9104-.23,14.8619-.4346,3.1988-.1322,5.2349,1.2024,6.4899,4.1705,2.2086,5.2233,4.6132,10.3635,6.9142,15.5481,7.227,16.2846,14.4425,32.5743,21.6709,48.8583,.285,.642,.6561,1.2458,1.1563,2.1852,.4416-.7796,.7957-1.2627,1.0088-1.8015,6.5814-16.6395,13.1744-33.2744,19.6892-49.94,.8965-2.293,1.5231-4.7139,2.0465-7.1252,.861-3.9661-.0107-7.4612-3.3104-10.1142-.2442-.1964-.4648-.4223-1.0965-1.0011,8.6708-.0642,16.9032-.1251,25.1357-.186v.48Z" style="fill:#fff;"/><path d="M1386.5485,167.6235c-1.117-.3836-2.2422-.7448-3.3494-1.1544-11.0336-4.0815-17.4953-12.0751-19.4408-23.5377-1.7759-10.4631,1.8824-19.2118,9.5981-26.2834,5.8319-5.3451,12.8752-8.2115,20.6156-9.4926,5.4114-.8956,10.8412-.531,16.2731-.2849,9.5024,.4305,19.0044,1.0795,28.5104,1.1534,6.0531,.0471,12.1129-.779,18.1699-1.2099,.627-.0446,1.2557-.0645,2.124-.108-.1789,.6542-.257,1.1688-.4561,1.6311-1.2969,3.0087-2.6671,5.9867-3.9187,9.0139-.8741,2.1143-2.386,3.0358-4.6332,3.1066-4.7475,.1494-9.402-.5762-14.0603-1.318-2.3389-.3725-4.6801-.7318-7.0202-1.0971-.0785,.1518-.1569,.3035-.2354,.4553,.5685,.4937,1.1593,.9641,1.7014,1.4852,2.0717,1.9906,4.3001,3.8499,6.159,6.0242,7.5252,8.8019,7.7008,24.4703-2.7026,33.5723-4.4852,3.9243-9.7028,6.4172-15.2798,8.2807-4.9603,1.6575-10.1236,2.2366-15.2762,2.9019-1.8097,.2337-3.6019,.685-5.3621,1.1792-.8218,.2307-1.6325,.6958-2.3032,1.235-2.2543,1.8125-1.8932,4.6724,.7942,5.7023,1.3112,.5024,2.7916,.709,4.207,.7682,5.3528,.2238,10.712,.2842,16.0652,.4973,5.5227,.2199,10.9886,.9006,16.3231,2.4212,6.0333,1.7197,11.3308,4.7225,15.8696,9.0691,3.8952,3.7305,5.7841,8.3869,6.2058,13.6572,.8078,10.0966-2.9081,18.0713-11.262,23.9191-7.6167,5.3318-16.0725,8.5798-25.1636,10.0571-13.7523,2.2348-27.4057,1.5765-40.8395-2.2881-4.9359-1.4199-9.6411-3.4031-13.9852-6.1819-3.0564-1.9552-5.7755-4.2823-7.9726-7.193-3.0729-4.0707-4.0384-8.6478-3.1351-13.6063,.5472-3.0046,2.0549-5.5194,4.4355-7.4787,5.1241-4.2173,15.109-5.1167,21.3369-1.7705-.7141,.2744-1.2667,.5013-1.8291,.7005-3.7212,1.3182-5.4262,4.0887-5.4599,7.8951-.0414,4.6804,1.561,8.766,4.8496,12.145,3.2127,3.301,7.1693,5.3815,11.5383,6.5756,11.7086,3.2001,23.3757,3.0881,34.9017-.9283,3.4258-1.1938,6.5577-2.9703,9.2141-5.4761,4.2145-3.9752,6.2768-8.7769,5.4968-14.6473-.5139-3.8669-2.4336-6.8788-5.499-9.2063-3.4505-2.6199-7.4509-3.9821-11.6043-4.9327-5.6318-1.2888-11.3659-1.8523-17.1262-1.9053-5.1119-.047-10.2264,.2053-15.3398,.3191-.8794,.0196-1.7646,.0705-2.6384,.0005-6.9291-.5556-10.9118-3.7033-12.6263-11.8557-.535-2.5439,.3964-4.6212,2.714-5.8535,2.4654-1.3108,5.0099-2.4749,7.5377-3.665,1.276-.6007,2.5914-1.1175,3.8891-1.6723-.0036-.2064-.0073-.4128-.0108-.6192Zm13.4364-50.7863c-1.6578,.2217-3.3364,.3432-4.9701,.6816-9.9685,2.0646-16.1786,11.0291-14.5806,20.9763,2.0793,12.9419,13.1083,21.8695,26.2066,20.9243,7.557-.5454,13.1376-4.2826,15.9874-11.4935,1.627-4.1171,1.8322-8.4215,.8328-12.7324-2.5184-10.8626-12.0113-18.2056-23.4762-18.3563Z" style="fill:#fff;"/><path d="M471.9144,172.9527c-2.6837,7.5548-5.3674,15.1096-8.0555,22.6767h-76.9306c.0501-.1833,.0427-.3946,.1331-.4521,4.1589-2.6438,5.7342-6.7398,6.2231-11.354,.3196-3.0156,.5152-6.0594,.5195-9.091,.0387-27.2742,.0388-54.5485,0-81.8227-.0043-3.0316-.1927-6.0769-.524-9.0908-.5241-4.7677-2.1023-9.0409-6.4572-12.0864,.8356,0,1.6713,0,2.5069,0,17.0338,0,34.0676,.0288,51.1013-.0185,4.7728-.0133,9.5695,.426,14.4353-.648v20.405c-.2706-.1112-.576-.1521-.7579-.3239-4.2762-4.038-9.492-5.9165-15.2287-6.1777-8.2262-.3745-16.4668-.4901-24.6487,.7989-1.7353,.2734-1.8799,.3733-1.8833,2.1221-.0205,10.7176-.0064,21.4353,.0071,32.153,.0005,.386,.1148,.7719,.21,1.3724,.7108,.0807,1.3923,.2242,2.074,.2254,8.157,.0148,16.3142,.0367,24.4708-.0182,1.496-.0101,2.9898-.3547,4.4917-.5458,.5216,1.6599,.6969,12.1279,.2875,17.7723-.1442,.0205-.3606,.1125-.4223,.0505-3.1105-3.1246-7.1162-3.8709-11.2378-3.9838-5.9935-.1642-11.9937-.1074-17.9909-.0933-1.6144,.0038-1.7853,.2441-1.893,1.7913-.0333,.4778-.0142,.9594-.0142,1.4393-.0005,13.0372-.0005,26.0745,0,39.1117,0,.4799,.032,.9613,.004,1.4393-.0692,1.1787,.5037,1.7904,1.6417,1.9234,4.2841,.5005,8.5571,1.2161,12.8557,1.4402,5.0218,.2618,10.0707,.24,15.0996,.0819,10.2681-.3228,19.8878-2.8906,28.4546-8.7947,.3195-.2202,.6745-.3887,1.013-.5812,.1717,.0929,.3434,.1858,.5151,.2787Z" style="fill:#fff;"/><path d="M1056.9004,139.1888c-3.5932-3.8494-8.3085-4.2399-13.0505-4.3427-5.3553-.1161-10.715-.0438-16.0728-.0315-.6177,.0014-1.2352,.1436-1.7923,.213-.4877,1.914-.6007,42.1662-.131,45.0938,.6,.1482,1.2718,.3613,1.96,.4769,9.6626,1.624,19.3954,2.0315,29.1561,1.3932,9.483-.6201,18.4076-3.109,26.3395-8.5738,.4484-.3089,.9255-.5761,1.6052-.7389-2.3946,7.7396-5.1467,15.3114-7.8713,22.9392h-76.8587c.0581-.2096,.0513-.4188,.1418-.4771,4.5834-2.953,5.8882-7.5917,6.3036-12.5863,.3111-3.7408,.4616-7.5053,.4674-11.2596,.0391-25.1939,.056-50.3881-.0146-75.5818-.0118-4.2253-.3653-8.461-.7767-12.6707-.4381-4.4817-2.2109-8.3253-6.1894-11.2395,.7928-.0235,1.5855-.0674,2.3783-.0676,19.1925-.0038,38.385,.0099,57.5774-.0185,2.5297-.0037,5.0593-.2184,7.5888-.3347,.5759,1.8455,.6502,17.4523,.0506,19.8593-.3621-.2151-.7213-.3584-.9925-.6004-4.1228-3.6771-9.0764-5.3943-14.4634-5.6539-8.3057-.4003-16.621-.4836-24.8914,.7572-1.2755,.1913-1.8001,.6706-1.796,1.9762,.0348,10.8772,.028,21.7544,.0437,32.6317,.0004,.3048,.1105,.6095,.1622,.8757,2.5025,.7029,26.6489,.5347,31.4078-.2473,.0248,1.9875,.0588,3.9342,.0708,5.881,.0122,1.9995,.0027,3.999,.0027,5.9985v5.9899c-.1183,.1129-.2368,.2259-.3551,.3388Z" style="fill:#fff;"/><path d="M1285.7297,150.2138c-23.0694,.0027-45.9015-.0005-68.7001,.0019-.7936,2.2649-.1684,4.1519,.1302,5.9925,1.7748,10.9362,6.9223,19.6536,16.8676,25.1141,4.6242,2.539,9.6325,3.944,14.8413,4.3949,10.2724,.8892,20.2919-.1172,29.6585-4.8569,2.1812-1.1038,4.2748-2.3807,6.773-3.7824-.5048,.965-.8075,1.5832-1.1446,2.182-2.3531,4.1794-4.7749,8.3218-7.0386,12.549-.8223,1.5357-1.9529,2.3578-3.5514,2.9169-8.8281,3.0876-17.9444,3.768-27.1943,3.4096-9.1496-.3545-17.8994-2.3503-26.0053-6.6978-12.2576-6.574-20.3997-16.4645-22.8372-30.3026-3.0639-17.395,2.2033-32.2646,15.0803-44.2709,5.6947-5.3095,12.7854-8.0991,20.4196-9.4142,8.6321-1.487,17.2252-1.4214,25.5671,1.5285,15.3028,5.4115,24.3482,16.2041,27.0084,32.223,.466,2.8062,.653,5.7041,.1256,9.0124Zm-19.3503-11.4797c-.0542-.7853,.0405-1.4536-.1626-2.0136-1.0319-2.8433-1.883-5.7936-3.277-8.4553-2.8655-5.4722-7.5396-8.8448-13.5511-10.1534-2.3952-.5214-4.9065-.6563-7.3693-.6948-10.5869-.1656-20.6613,5.8877-24.3048,19.5346-.1372,.5141-.0851,1.0788-.1319,1.7826h48.7968Z" style="fill:#fff;"/><path d="M571.1709,179.2902c.5416-1.0831,.8925-1.67,1.1405-2.2975,6.4306-16.2668,12.8964-32.52,19.2292-48.8249,1.1179-2.8781,1.812-5.9458,2.4501-8.9788,.757-3.5982-.4864-6.6036-3.3218-8.9462-.2998-.2477-.5704-.5305-1.0894-1.0172h24.7434c-.2996,.8599-.4927,1.5264-.7589,2.1623-13.3577,31.9024-26.704,63.8096-40.1127,95.6906-1.297,3.0839-2.7745,6.133-4.5281,8.9762-6.8046,11.0324-16.7767,16.9418-29.6767,18.1508-8.884,.8326-17.3311-.7965-25.5838-3.8963-.3595-.135-.6917-.3423-1.2305-.6135,.604-.518,1.0456-.9512,1.5398-1.312,4.261-3.111,8.5585-6.1729,12.7823-9.3334,1.2232-.9152,2.1915-1.114,3.6588-.3797,8.6132,4.3103,17.0479,2.5298,23.2539-4.8617,4.5486-5.4174,7.1987-11.8401,9.4992-18.4318,.3347-.959,.0855-1.6978-.6683-2.3422-4.3202-3.6936-6.7136-8.6158-9.0102-13.6829-8.2115-18.1174-16.5487-36.178-24.877-54.2422-1.1689-2.5354-2.4768-5.0151-3.8573-7.4427-1.8472-3.2485-4.3171-5.9401-7.616-7.7978-.2575-.145-.4839-.3451-1.0921-.7856,1.6437-.1143,2.8774-.2382,4.1141-.2794,4.7931-.1596,9.59-.2309,14.3797-.4566,3.4701-.1636,5.6545,1.2394,7.0368,4.493,3.1854,7.4971,6.5972,14.8978,9.9021,22.3443,6.0921,13.7269,12.1716,27.4593,18.2634,41.1864,.3718,.8379,.8051,1.6486,1.4295,2.9191Z" style="fill:#fff;"/><path d="M934.6437,195.6132h-29.5197c.9464-.8742,1.6145-1.5087,2.301-2.1224,2.243-2.005,3.5874-4.4692,3.8136-7.4934,.1549-2.0699,.3812-4.1423,.3881-6.2142,.0382-11.2747,.092-22.5504-.0256-33.824-.0366-3.4988-.3868-7.0263-.96-10.4799-.8446-5.0887-3.6471-9.0368-8.1409-11.5735-8.4228-4.7545-17.1284-5.4842-25.8786-.9954-5.7763,2.9632-8.9864,7.6579-8.946,14.4237,.0901,15.1124,.0519,30.2255,.0461,45.3384-.0018,4.7905,1.2119,9.0114,5.3088,11.9758,.2333,.1688,.3755,.4637,.7338,.9224h-28.9284c.7405-.708,1.3192-1.305,1.9432-1.85,2.3981-2.095,3.8375-4.6669,4.0156-7.8906,.1057-1.9136,.3289-3.826,.3315-5.7392,.0254-18.4715,.0244-36.9431,.001-55.4147-.0023-1.8336-.2244-3.6659-.3074-5.5005-.1584-3.5035-1.7408-6.25-4.4019-8.4448-.4827-.3982-.9346-.8338-1.7258-1.5441,1.0461-.0501,1.7206-.1057,2.3956-.1109,3.6774-.0284,7.3595,.0621,11.0309-.0979,2.9728-.1296,5.8653-.7599,8.5865-3.1443v15.1778c.9092-.7426,1.3838-1.0831,1.8037-1.4811,2.26-2.1424,4.3844-4.4475,6.7827-6.4204,5.1697-4.2528,11.1699-6.3366,17.8909-6.5257,7.3466-.2067,14.2871,1.1686,20.7951,4.6466,8.7379,4.6696,13.2424,12.0241,13.7178,21.8296,.298,6.145,.4313,12.3016,.4802,18.4543,.0769,9.675,.0096,19.351,.0311,29.0266,.0037,1.6755,.1084,3.3533,.2296,5.0255,.2637,3.6384,1.9192,6.5387,4.7631,8.7891,.3717,.2941,.7168,.6217,1.4446,1.2573Z" style="fill:#fff;"/><path d="M834.3792,185.2378c-.2461,.5241-.3667,.8901-.5716,1.2005-1.9812,3.0021-4.0042,5.977-5.9527,9-.6812,1.0568-1.4726,1.5709-2.7674,1.384-2.9223-.4219-5.9177-.5173-8.7652-1.2227-2.4399-.6044-4.8129-1.6907-7.0426-2.8863-4.0457-2.1695-6.0587-5.8136-6.5275-10.2936-.2823-2.6984-.4628-5.4187-.4856-8.1309-.064-7.5967-.0224-15.1943-.0224-22.7915,0-.8472,0-1.6943,0-2.7485-.739,.1617-1.1392,.1778-1.4749,.3332-6.3643,2.9467-13.227,4.1798-19.9591,5.8763-2.7783,.7001-5.5936,1.4177-8.2138,2.5427-4.0648,1.7453-6.9752,4.7056-8.1322,9.1613-1.8061,6.9546,1.2208,13.6966,7.6617,16.8843,2.8295,1.4004,5.8551,2.1107,8.9891,2.3302,4.9031,.3435,9.7385-.0387,14.4609-1.4941,.4959-.1528,1.0132-.2363,1.7281-.3992-.2177,.4551-.2827,.6882-.4204,.8646-2.9026,3.7183-5.8299,7.4174-8.71,11.1529-.6801,.8822-1.4975,1.4075-2.5793,1.5633-6.8639,.9892-13.6995,1.0969-20.4332-.8469-12.2532-3.5371-20.8145-15.368-19.9519-28.0622,.5392-7.9341,4.2537-14.1271,11.5321-17.8652,5.1709-2.6557,10.7632-3.9924,16.387-5.2171,5.3042-1.1551,10.6485-2.1425,15.9163-3.4421,2.6143-.6449,5.1806-1.6469,7.623-2.7968,6.9416-3.2682,6.1522-11.605,2.304-15.362-3.4535-3.3717-7.7538-4.6463-12.3846-5.0562-7.1652-.6343-13.9945,.7498-20.5521,3.6213-2.2662,.9923-4.5318,1.9858-7.1722,3.143,.3994-.7833,.6129-1.3189,.9227-1.7915,3.068-4.6794,6.2249-9.3026,9.1919-14.0448,1.0413-1.6643,2.3562-2.3757,4.203-2.6564,5.0116-.7618,10.0434-.6751,15.0758-.4971,4.654,.1646,9.2138,.9641,13.6245,2.484,6.9923,2.4096,12.291,6.7209,15.1269,13.7169,1.5029,3.7075,1.6527,7.6527,1.6902,11.558,.1052,10.955,.0523,21.9115,.0827,32.8673,.0056,1.9974-.0317,4.0108,.1949,5.9889,.7133,6.2266,4.1638,9.9295,10.3351,11.1893,1.6122,.3291,3.2601,.4831,5.0692,.743Z" style="fill:#fff;"/><path d="M1185.8769,195.5957h-29.3672c.8565-.7866,1.4031-1.3183,1.9808-1.814,2.628-2.2558,4.0552-5.0991,4.2078-8.5659,.1229-2.7952,.3176-5.5906,.3289-8.3866,.04-9.9997,.0862-20.0004-.023-29.999-.0383-3.5052-.3509-7.0288-.8346-10.5028-.8021-5.7615-3.8627-10.1214-9.015-12.8332-8.3056-4.3713-16.8-4.9394-25.2717-.5386-4.2626,2.2143-7.5215,5.4894-8.4436,10.4468-.363,1.951-.432,3.9779-.4375,5.9708-.0364,13.2797-.0295,26.5595-.0086,39.8393,.003,1.9978,.1158,3.9978,.2444,5.9925,.2209,3.4225,1.5098,6.3463,4.1694,8.5982,.5421,.459,1.0631,.9431,1.6267,1.4448-1.5431,.5892-25.0357,.7668-28.7492,.2131,.8872-.8407,1.6626-1.5924,2.4563-2.3242,2.1703-2.0015,3.2593-4.5164,3.4436-7.4218,.1519-2.393,.288-4.792,.2913-7.1885,.0244-17.2797,.0216-34.5594,.0028-51.8391-.0025-2.2371-.1735-4.4736-.2171-6.7113-.0749-3.8433-1.6009-6.9529-4.6008-9.3498-.4291-.3428-.8299-.7209-1.5507-1.3507,.9364-.091,1.515-.1924,2.0941-.1961,3.1994-.0202,6.3992,.0091,9.5982-.028,3.5652-.0414,7.0209-.5277,10.3247-3.1724v14.5604l.5111,.1798c.493-.4542,.9811-.9141,1.4802-1.3615,2.8514-2.5565,5.5452-5.3241,8.5971-7.6138,4.4617-3.3474,9.6682-4.7859,15.2463-5.0302,7.0023-.3067,13.748,.723,19.9872,3.9687,2.6682,1.388,5.2139,3.1405,7.5097,5.0876,4.4154,3.7445,6.6522,8.7937,7.2145,14.4567,.5286,5.3228,.8242,10.6854,.8864,16.0343,.1302,11.1982,.0352,22.399,.0442,33.5988,.0013,1.6795,.0177,3.3614,.1086,5.0378,.1946,3.5855,1.441,6.6921,4.2714,9.047,.5403,.4496,1.0352,.9539,1.8933,1.7509Z" style="fill:#fff;"/><path d="M681.9131,109.0611v15.203c-.9515-.467-1.7051-.802-2.426-1.1964-4.7297-2.5873-9.664-4.636-15.0451-5.3338-5.194-.6735-10.3673-.6588-15.3728,1.2209-2.0443,.7677-3.9074,1.8327-5.3985,3.4617-3.3358,3.6442-3.1382,8.4958,.6582,11.6408,1.5796,1.3086,3.3918,2.4576,5.2787,3.2484,3.8974,1.6334,7.9126,2.9864,11.8851,4.439,4.8733,1.782,9.8059,3.4173,14.6065,5.3767,2.3399,.9551,4.5522,2.341,6.6275,3.8076,12.1939,8.6178,11.4946,23.7353,5.2774,32.5817-2.4811,3.5302-5.674,6.2592-9.3922,8.4105-5.2678,3.0478-10.9972,4.7673-16.9697,5.5761-8.1182,1.0994-16.2736,1.1893-24.341-.4135-3.431-.6817-6.7611-1.874-10.1325-2.8501-.868-.2513-1.5804-.676-1.9057-1.6305-1.7517-5.1394-3.5369-10.2674-5.2942-15.4049-.0667-.1949,.0339-.447,.0889-.9944,1.0953,.6025,2.0477,1.1071,2.9818,1.6434,5.7708,3.3131,11.725,6.2072,18.2432,7.7404,6.5955,1.5514,13.2505,2.1382,19.955,.755,3.4861-.7192,6.7108-2.079,9.4675-4.4005,6.859-5.776,4.6823-14.3935-1.2429-17.7816-2.4136-1.3801-4.9963-2.5047-7.5895-3.5224-5.9458-2.3336-12.0177-4.359-17.8975-6.8431-3.8065-1.6082-7.4865-3.6086-11.0006-5.7916-3.8935-2.4187-6.8057-5.8061-7.9753-10.4074-2.1263-8.365,.1496-17.865,8.0664-23.7082,4.3374-3.2013,9.2339-5.1216,14.4601-6.0757,10.9781-2.0042,21.9423-1.7098,32.8366,.7522,.4564,.1032,.8952,.2843,1.5507,.4967Z" style="fill:#fff;"/><path d="M511.0428,195.6104h-28.8096c.8147-.7685,1.3369-1.3129,1.9117-1.7946,2.7411-2.2974,4.0805-5.2665,4.2155-8.7991,.1068-2.7948,.2265-5.5916,.2282-8.3876,.0167-27.9807,.0163-55.9615,.0017-83.9422-.0016-3.1161-.1551-6.2319-.1762-9.3482-.0277-4.0816-1.43-7.4859-4.72-10.0188-.315-.2425-.6027-.5243-.879-.8111-.1017-.1056-.1337-.2784-.2792-.6022,.6607-.0618,1.2594-.1632,1.8585-.1662,3.1972-.0164,6.3948-.0368,9.5918-.0011,3.79,.0423,7.489-.2544,11.1039-3.0553v3.5752c0,35.0958-.0048,70.1916,.0105,105.2874,.0011,2.3953,.1742,4.79,.23,7.1859,.0892,3.824,1.5579,6.9696,4.5431,9.3797,.4744,.383,1.0006,.7019,1.5028,1.0504-.1112,.1493-.2224,.2986-.3337,.4479Z" style="fill:#fff;"/><path d="M1302.4358,109.0719c2.2949,0,4.5896,.0033,6.8845-.001,1.9191-.0037,3.8388,.0088,5.7574-.0307,3.3066-.0681,6.4944-.6256,9.6984-2.9949,.065,5.0278,.1228,9.5048,.1807,13.9818,.1943,.0594,.3884,.1188,.5827,.1782,.455-.6804,.9119-1.3594,1.3643-2.0415,3.426-5.1653,7.8724-9.0076,13.948-10.718,4.2425-1.1944,8.5035-1.0786,12.9566-.2698v15.9545c-.1762,.008-.4497,.109-.5971,.0142-3.6826-2.3718-7.7446-2.3938-11.8222-1.7132-8.7189,1.4552-14.4683,7.3025-15.7744,16.0655-.4579,3.0716-.6881,6.2024-.713,9.3086-.0849,10.6367-.0463,21.2745-.0216,31.9118,.005,2.1574,.113,4.3169,.2457,6.471,.211,3.422,1.4975,6.3457,4.1531,8.6032,.578,.4913,1.1139,1.0322,1.9531,1.815h-29.2351c.8741-.8113,1.4713-1.396,2.1003-1.944,2.5512-2.2223,3.8866-5.0215,4.0124-8.3981,.095-2.556,.2523-5.1123,.2558-7.6686,.023-16.9558,.0205-33.9116,.0015-50.8674-.0025-2.2367-.1746-4.4726-.2176-6.7098-.0738-3.8373-1.5701-6.9607-4.5696-9.3625-.4297-.3441-.8346-.7193-1.251-1.0801,.0357-.168,.0715-.3361,.1072-.5041Z" style="fill:#fff;"/><path d="M706.3191,109.0719c2.1355,0,4.2709,.0034,6.4064-.001,2.0789-.0043,4.1622,.0614,6.2355-.0501,1.6684-.0897,3.3682-.2339,4.9743-.6571,1.5054-.3967,2.9059-1.1914,4.7171-1.967,0,1.0972,0,2.0173,0,2.9374,0,22.7133-.0105,45.4265,.0146,68.1397,.0028,2.5551,.2176,5.1095,.3152,7.665,.1393,3.6522,1.6366,6.6173,4.4517,8.9345,.4283,.3525,.8225,.7469,1.224,1.1308,.0445,.0425,.0325,.1441,.0761,.3712h-28.7576c.629-.6347,1.0556-1.1481,1.5626-1.5632,3.0581-2.503,4.4456-5.7733,4.4789-9.6667,.0374-4.3982,.0722-8.7965,.0748-13.1948,.0089-15.4354,.0065-30.8708-.0008-46.3062-.0008-1.679-.0271-3.3594-.1009-5.0365-.155-3.5241-1.4488-6.5191-4.2025-8.814-.5447-.454-1.0636-.9391-1.5944-1.4099,.0416-.1707,.0832-.3414,.1248-.5121Z" style="fill:#fff;"/><path d="M731.5089,85.8511c-.1192,6.5154-5.2361,11.3551-11.8143,11.1743-6.4953-.1785-11.1981-5.2592-11.0534-11.9418,.1347-6.216,5.3838-11.0882,11.8376-10.9874,6.2209,.0971,11.1473,5.3473,11.03,11.7549Z" style="fill:#fff;"/><path d="M131.4818,175.3725H52.0954c.169-.8557,.2671-1.5359,.4394-2.1967,2.1171-8.1185,5.7672-15.3855,11.8756-21.2751,6.0855-5.8675,13.4141-9.0723,21.7344-10.2007,6.256-.8484,12.4453-.5083,18.5504,1.0224,8.4234,2.1121,15.0789,6.7818,19.8077,14.1047,3.5997,5.5744,5.7093,11.7133,6.979,18.5453Z" style="fill:#fff;"/></svg>