<svg width="31" height="31" viewBox="0 0 31 31" fill="none" xmlns="http://www.w3.org/2000/svg">
<path d="M27.6109 0.26709H3.94512C3.14227 0.26709 2.3723 0.605851 1.8046 1.20885C1.2369 1.81185 0.917969 2.62969 0.917969 3.48246L0.917969 27.0619C0.917969 27.9146 1.2369 28.7325 1.8046 29.3355C2.3723 29.9385 3.14227 30.2772 3.94512 30.2772H13.5015V20.0745H9.52835V15.2722H13.5015V11.612C13.5015 7.44876 15.8349 5.1491 19.4088 5.1491C21.1204 5.1491 22.9102 5.47332 22.9102 5.47332V9.55952H20.9382C18.9951 9.55952 18.3891 10.8403 18.3891 12.1539V15.2722H22.7267L22.033 20.0745H18.3891V30.2772H27.6109C28.4138 30.2772 29.1837 29.9385 29.7514 29.3355C30.3191 28.7325 30.6381 27.9146 30.6381 27.0619V3.48246C30.6381 2.62969 30.3191 1.81185 29.7514 1.20885C29.1837 0.605851 28.4138 0.26709 27.6109 0.26709Z" fill="white"/>
</svg>
