<?xml version="1.0" encoding="UTF-8"?><svg id="Layer_1" xmlns="http://www.w3.org/2000/svg" viewBox="0 0 574.1685 959.994"><path d="M299.0825,106.367V12c0-6.625-5.3633-12-12-12s-12,5.375-12,12V106.367c0,6.625,5.3633,12,12,12s12-5.3633,12-12Z" style="fill:#f9f871;"/><path d="M57.7725,184.777c2.3398,3.2266,6,4.9453,9.7188,4.9453,2.4492,0,4.9062-.7422,7.043-2.293,5.3516-3.8984,6.5508-11.398,2.6523-16.766L21.7096,94.3193c-3.875-5.3516-11.387-6.5391-16.754-2.6523-5.3516,3.8984-6.5508,11.398-2.6523,16.766l55.4692,76.344Z" style="fill:#f9f871;"/><path d="M4.9424,868.327c2.1367,1.5469,4.5977,2.293,7.043,2.293,3.7188,0,7.3672-1.7148,9.7188-4.9453l55.477-76.344c3.8984-5.3633,2.7109-12.863-2.6523-16.766-5.375-3.8984-12.863-2.6992-16.754,2.6523L2.2979,851.561c-3.9062,5.3672-2.707,12.867,2.6445,16.766Z" style="fill:#f9f871;"/><path d="M275.0825,853.627v94.3669c0,6.625,5.3633,12,12,12s12-5.375,12-12v-94.367c0-6.625-5.3633-12-12-12s-12,5.3633-12,12h0Z" style="fill:#f9f871;"/><path d="M552.4625,865.677c2.3398,3.2266,6,4.9453,9.7188,4.9453,2.4492,0,4.9062-.7422,7.043-2.293,5.3516-3.8984,6.5508-11.398,2.6523-16.766l-55.477-76.344c-3.8867-5.3516-11.387-6.5508-16.754-2.6523-5.3516,3.8984-6.5508,11.398-2.6523,16.766l55.4692,76.344Z" style="fill:#f9f871;"/><path d="M569.2225,91.667c-5.375-3.8984-12.875-2.7109-16.754,2.6523l-55.477,76.344c-3.8984,5.3633-2.7109,12.863,2.6523,16.766,2.1367,1.5469,4.5977,2.293,7.043,2.293,3.7188,0,7.3672-1.7148,9.7188-4.9453l55.477-76.344c3.8906-5.3672,2.6914-12.867-2.6602-16.766h.0001Z" style="fill:#f9f871;"/><path d="M542.3625,448.587c22.055-96.383-31.129-166.07-89.855-190.02-60.648-24.723-123.91-4.8984-165.42,50.434-41.531-55.332-104.8-75.168-165.43-50.426-58.738,23.953-111.9,93.625-89.844,190.01,37.188,162.59,240.68,280.66,249.31,285.6,1.8477,1.0547,3.8984,1.5859,5.9648,1.5859,2.0625,0,4.1172-.5273,5.9648-1.5859,8.6406-4.9453,212.11-123.01,249.31-285.6l-.0006,.002Zm-255.28,261.19c-33.793-20.723-200.43-129.02-231.89-266.54-18.926-82.727,25.871-142.19,75.516-162.43,13.152-5.3633,27.949-8.6055,43.344-8.6055,35.293,0,73.754,17.016,102.79,64.43,4.3555,7.1289,16.105,7.1172,20.461,0,41.711-68.102,102.84-73.488,146.14-55.824,49.645,20.242,94.453,79.715,75.527,162.45-31.453,137.36-198.12,245.78-231.89,266.53l.0021-.0105Z" style="fill:#f9f871;"/></svg>