<svg width="31" height="31" viewBox="0 0 31 31" fill="none" xmlns="http://www.w3.org/2000/svg">
<path d="M15.7477 11.6991C15.0479 11.6993 14.3639 11.9091 13.7822 12.3019C13.2004 12.6947 12.7471 13.2528 12.4795 13.9057C12.2119 14.5587 12.142 15.277 12.2787 15.9701C12.4153 16.6631 12.7525 17.2996 13.2474 17.7992C13.7423 18.2988 14.3728 18.6389 15.0592 18.7767C15.7456 18.9145 16.457 18.8436 17.1035 18.5731C17.75 18.3027 18.3026 17.8447 18.6913 17.2571C19.0801 16.6696 19.2876 15.9788 19.2876 15.2722C19.2869 14.3245 18.9137 13.4159 18.2499 12.7459C17.5862 12.076 16.6862 11.6994 15.7477 11.6991ZM24.0209 8.95262C23.8408 8.49164 23.5688 8.07296 23.2217 7.72254C22.8747 7.37212 22.4601 7.09744 22.0035 6.91554C20.6104 6.36022 17.2934 6.48482 15.7477 6.48482C14.202 6.48482 10.8884 6.35553 9.49126 6.91554C9.03474 7.09744 8.6201 7.37212 8.27307 7.72254C7.92604 8.07296 7.65402 8.49164 7.47388 8.95262C6.92458 10.3593 7.04731 13.712 7.04731 15.2715C7.04731 16.831 6.92458 20.1796 7.47653 21.591C7.65667 22.052 7.92869 22.4707 8.27572 22.8211C8.62275 23.1715 9.03739 23.4462 9.49391 23.6281C10.887 24.1834 14.204 24.0588 15.7504 24.0588C17.2968 24.0588 20.6091 24.1881 22.0062 23.6281C22.4627 23.4462 22.8773 23.1715 23.2244 22.8211C23.5714 22.4707 23.8434 22.052 24.0236 21.591C24.5775 20.1843 24.4501 16.8316 24.4501 15.2722C24.4501 13.7127 24.5775 10.3647 24.0236 8.95329L24.0209 8.95262ZM15.7477 20.7651C14.6718 20.7651 13.6201 20.4429 12.7255 19.8394C11.8309 19.2358 11.1337 18.3779 10.722 17.3742C10.3103 16.3705 10.2025 15.2661 10.4124 14.2005C10.6223 13.135 11.1404 12.1563 11.9012 11.3881C12.662 10.6199 13.6312 10.0967 14.6865 9.88478C15.7417 9.67284 16.8355 9.78161 17.8295 10.1974C18.8235 10.6131 19.6731 11.3171 20.2708 12.2205C20.8685 13.1238 21.1876 14.1858 21.1876 15.2722C21.1884 15.9938 21.0483 16.7084 20.7753 17.3753C20.5022 18.0421 20.1015 18.648 19.5962 19.1582C19.0909 19.6685 18.4909 20.073 17.8305 20.3488C17.1701 20.6245 16.4623 20.766 15.7477 20.7651ZM21.4118 10.8309C21.1606 10.8311 20.9151 10.756 20.7062 10.6152C20.4973 10.4744 20.3344 10.2742 20.2382 10.0399C20.142 9.80565 20.1168 9.54783 20.1657 9.29908C20.2146 9.05033 20.3355 8.82181 20.5131 8.64244C20.6906 8.46306 20.9168 8.34088 21.1632 8.29136C21.4095 8.24183 21.6648 8.26718 21.8969 8.3642C22.1289 8.46122 22.3273 8.62556 22.4668 8.83642C22.6064 9.04728 22.6809 9.29519 22.6809 9.5488C22.6816 9.71721 22.6493 9.88411 22.586 10.0399C22.5227 10.1957 22.4295 10.3374 22.3119 10.4567C22.1942 10.5761 22.0544 10.6708 21.9004 10.7355C21.7464 10.8002 21.5812 10.8335 21.4144 10.8336L21.4118 10.8309ZM27.4235 0.26709H4.07199C3.22746 0.26709 2.41752 0.605852 1.82035 1.20885C1.22318 1.81185 0.887695 2.62969 0.887695 3.48246L0.887695 27.0619C0.887695 27.9146 1.22318 28.7325 1.82035 29.3355C2.41752 29.9385 3.22746 30.2772 4.07199 30.2772H27.4235C28.268 30.2772 29.0779 29.9385 29.6751 29.3355C30.2723 28.7325 30.6078 27.9146 30.6078 27.0619V3.48246C30.6078 2.62969 30.2723 1.81185 29.6751 1.20885C29.0779 0.605852 28.268 0.26709 27.4235 0.26709ZM26.2877 19.6933C26.2022 21.4102 25.8141 22.9315 24.5729 24.1814C23.3317 25.4314 21.8264 25.8313 20.1281 25.913C18.3761 26.0129 13.1233 26.0129 11.3713 25.913C9.67104 25.8266 8.16978 25.4341 6.92657 24.1814C5.68337 22.9288 5.29263 21.4068 5.2117 19.6933C5.11285 17.9235 5.11285 12.6188 5.2117 10.851C5.29728 9.13415 5.68072 7.61288 6.92657 6.3629C8.17243 5.11293 9.67767 4.7177 11.3713 4.63598C13.1233 4.53617 18.3761 4.53617 20.1281 4.63598C21.8284 4.72239 23.3343 5.11493 24.5729 6.36759C25.8114 7.62025 26.2068 9.14219 26.2877 10.8591C26.3866 12.6222 26.3866 17.9222 26.2877 19.6933Z" fill="white"/>
</svg>
