<?xml version="1.0" encoding="UTF-8"?><svg id="Layer_1" xmlns="http://www.w3.org/2000/svg" viewBox="0 0 614.5414 884.4016"><path d="M139.3476,626.4044c8.3984,1.1992,18,2.3984,26.398,2.3984,31.199,0,61.199-9.6016,86.398-27.602,0,0,1.1992,0,1.1992-1.1992v272.4c0,7.1992,4.8008,12,12,12s12-4.8008,12-12l.0039-258c28.801,12,60,18,90,18,87.602,0,171.6-48,213.6-130.8,79.199-159.6-6-477.6-9.6016-492,0-1.1992-1.1992-2.3984-1.1992-3.6016v-1.1992c-1.1992-1.1992-2.3984-2.3984-3.6016-3.6016h-1.1992c-1.1992,0-2.3984-1.1992-3.6016-1.1992h-4.8008c-13.199,6-330,134.4-409.2,290.4-64.801-27.602-126-40.801-129.6-42h-4.8008c-1.1992,0-3.6016,1.1992-4.8008,2.3984s-2.3984,2.3984-2.3984,3.6016v1.1992c0,1.1992-1.1992,2.3984-1.1992,3.6016-1.1992,8.3984-24,213.6,39.602,303.6,19.203,34.801,54.004,56.398,94.801,63.598l.0012,.0056Zm129.6-223.2c19.199,27.602,27.602,61.199,21.602,94.801-4.8008,30-20.398,56.398-43.199,75.602L42.1506,282.0074c58.801,16.801,182.4,57.602,226.8,121.2l-.003-.003Zm289.2,87.602c-51.602,102-174,145.2-277.2,99.602L554.5476,48.0083c20.398,83.996,66,319.2,3.5977,442.8l.0023-.002Zm-24-453.6l-218.4,430.8c-1.1992-27.602-10.801-55.199-27.602-79.199-25.199-36-73.199-66-121.2-87.602C230.5476,181.2054,452.5456,73.2054,534.1457,37.2054l.002,.001ZM22.9476,296.4064l205.2,291.6c-25.199,14.398-55.199,20.398-85.199,14.398-33.602-6-62.398-24-82.801-52.801-43.199-61.199-40.801-192-37.199-253.2l-.001,.003Z" style="fill:#f9f871;"/></svg>