<svg width="31" height="31" viewBox="0 0 31 31" fill="none" xmlns="http://www.w3.org/2000/svg">
<path d="M28.0425 0.26709H2.56154C1.39397 0.26709 0.445312 1.2384 0.445312 2.43077V28.1136C0.445312 29.3059 1.39397 30.2772 2.56154 30.2772H28.0425C29.2101 30.2772 30.1654 29.3059 30.1654 28.1136V2.43077C30.1654 1.2384 29.2101 0.26709 28.0425 0.26709ZM9.42768 25.9901H5.02274V11.6683H9.43431V25.9901H9.42768ZM7.22521 9.71225C5.81218 9.71225 4.67114 8.55337 4.67114 7.13325C4.67114 5.71313 5.81218 4.55425 7.22521 4.55425C8.6316 4.55425 9.77928 5.71313 9.77928 7.13325C9.77928 8.56007 8.63824 9.71225 7.22521 9.71225ZM25.9396 25.9901H21.5346V19.0234C21.5346 17.3622 21.5015 15.2253 19.2459 15.2253C16.9506 15.2253 16.599 17.0339 16.599 18.9029V25.9901H12.194V11.6683H16.4199V13.6243H16.4796C17.07 12.4989 18.5096 11.3132 20.6523 11.3132C25.1103 11.3132 25.9396 14.2808 25.9396 18.1392V25.9901Z" fill="white"/>
</svg>
