<?xml version="1.0" encoding="UTF-8"?>
<svg width="1200pt" height="1200pt" version="1.1" viewBox="0 0 1200 1200" xmlns="http://www.w3.org/2000/svg">
 <path d="m882 153.6c-77.816-68.988-178.29-106.94-282.29-106.63-103.99 0.3125-204.24 38.871-281.64 108.32-77.402 69.453-126.55 164.95-138.08 268.31-8.0781 68.957 1.3164 138.84 27.32 203.21 26 64.375 67.777 121.18 121.48 165.18 34.961 28.129 55.625 70.332 56.398 115.2v114c0 35.008 13.906 68.586 38.664 93.34 24.754 24.754 58.328 38.66 93.336 38.66h165.6c35.008 0 68.582-13.906 93.336-38.66 24.758-24.754 38.664-58.332 38.664-93.34v-108c0.19922-44.207 19.441-86.188 52.801-115.2 63.387-51.816 110.45-120.84 135.53-198.78 25.078-77.934 27.098-161.46 5.8242-240.52-21.277-79.055-64.945-150.28-125.75-205.1zm-199.2 927.6h-165.6c-15.914 0-31.172-6.3203-42.426-17.574-11.254-11.25-17.574-26.512-17.574-42.426v-68.398h285.6v68.398c0 15.914-6.3203 31.176-17.574 42.426-11.254 11.254-26.512 17.574-42.426 17.574zm-46.801-763.2c43.199 43.199 111.6 128.4 112.8 225.6v12c0.26172 35.461-11.121 70.027-32.402 98.398-19.77 26.977-48.117 46.441-80.398 55.199zm-72 390c-25.57-6.8789-48.793-20.566-67.199-39.602-28.48-29.699-44.387-69.25-44.402-110.4v-12c0-58.801 24-122.4 72-183.6 12.219-16.785 25.441-32.816 39.602-48zm256.8 34.801c-40.613 35.203-67.406 83.684-75.602 136.8h-109.2v-97.203c55.23-9.6328 104.64-40.137 138-85.199 30.797-41.199 47.234-91.363 46.801-142.8v-12c-1.1992-176.4-168-307.2-175.2-313.2l-26.398-20.398h-0.003906c-6.3359-4.9648-14.152-7.6602-22.199-7.6602s-15.863 2.6953-22.199 7.6602l-26.398 20.398h-0.003906c-31.148 26.012-59.316 55.391-84 87.602-57.602 74.398-86.398 153.6-86.398 228v12c-0.03125 59.969 23.195 117.61 64.801 160.8 32.266 34.219 74.82 56.969 121.2 64.797v98.398h-108v0.003906c-8.0039-56.312-36.66-107.64-80.398-144-44.691-36.266-79.547-83.188-101.36-136.45-21.805-53.262-29.871-111.15-23.445-168.35 6.8984-91.43 49.359-176.51 118.27-236.99 68.91-60.48 158.79-91.543 250.34-86.516 91.551 5.0234 177.49 45.734 239.37 113.39 61.879 67.66 94.773 156.88 91.621 248.51-0.28516 52.137-12.047 103.57-34.445 150.64-22.398 47.074-54.883 88.645-95.152 121.76z" fill="#fff"/>
</svg>
