<?xml version="1.0" encoding="UTF-8"?>
<svg width="1200pt" height="1200pt" version="1.1" viewBox="0 0 1200 1200" xmlns="http://www.w3.org/2000/svg">
 <g fill="#e35b25">
  <path d="m603.27 108.61c-273.97 0-496.86 222.89-496.86 496.86-0.003906 273.97 222.89 496.85 496.86 496.85s496.85-222.89 496.85-496.86c0-273.97-222.88-496.85-496.85-496.85zm0 933.71c-240.89 0-436.86-195.97-436.86-436.86 0-240.89 195.97-436.86 436.86-436.86s436.85 195.97 436.85 436.86c0 240.89-195.96 436.86-436.85 436.86z"/>
  <path d="m804.24 575.47h-170.98v-170.98c0-16.57-13.43-30-30-30-16.57 0-30 13.43-30 30v170.98h-170.88c-16.57 0-30 13.43-30 30 0 16.559 13.43 30 30 30h170.89v170.95c0 16.57 13.43 30 30 30 16.559 0 30-13.43 30-30l0.003906-170.96h170.97c16.57 0 30-13.43 30-30 0-16.562-13.438-29.988-30-29.988z"/>
 </g>
</svg>
