<?xml version="1.0" encoding="UTF-8"?><svg id="Layer_1" xmlns="http://www.w3.org/2000/svg" viewBox="0 0 820.3967 960.01"><path d="M592.231,676.4002c5.4727,.8281,10.922,1.2227,16.297,1.2227,52.906,0,99.434-38.746,107.55-92.617,8.9531-59.34-32.039-114.9-91.391-123.85-59.293-8.9297-114.9,32.051-123.85,91.391-8.9414,59.355,32.051,114.92,91.391,123.86l.003-.0067Zm-67.656-120.27c6.9844-46.246,50.305-78.18,96.539-71.23,46.246,6.9844,78.203,50.281,71.23,96.539-6.9727,46.246-50.258,78.227-96.539,71.23-46.246-6.9727-78.203-50.281-71.23-96.539Z" style="fill:#f9f871;"/><path d="M630.801,434.3501c5.832,0,10.957-4.2617,11.844-10.211l7.7891-51.625c.9961-6.5508-3.5156-12.66-10.078-13.656-6.5273-.9961-12.66,3.5156-13.656,10.078l-7.7891,51.625c-.9961,6.5508,3.5156,12.66,10.078,13.656,.6094,.0859,1.2227,.1328,1.8125,.1328l-.0005,.0002Z" style="fill:#f9f871;"/><path d="M723.701,404.4401l-32.328,40.992c-4.1055,5.207-3.2148,12.742,1.9922,16.848,2.207,1.7383,4.8242,2.5781,7.4297,2.5781,3.5391,0,7.0547-1.5586,9.4336-4.5703l32.328-40.992c4.1055-5.207,3.2148-12.742-1.9922-16.848-5.2227-4.1055-12.758-3.2188-16.863,1.9922h-.0003Z" style="fill:#f9f871;"/><path d="M790.891,483.6801l-48.383,19.609c-6.1445,2.4961-9.1094,9.4922-6.6133,15.625,1.8945,4.668,6.3828,7.5,11.125,7.5,1.5,0,3.0234-.2891,4.5-.8867l48.383-19.609c6.1445-2.4961,9.1094-9.4922,6.6133-15.625-2.4844-6.1445-9.4922-9.0977-15.625-6.6133Z" style="fill:#f9f871;"/><path d="M808.411,609.7102c5.9141,0,11.062-4.3789,11.879-10.402,.875-6.5625-3.7305-12.613-10.297-13.488l-51.742-6.9258c-6.6016-.8398-12.602,3.7305-13.488,10.297-.875,6.5625,3.7305,12.613,10.297,13.488l51.742,6.9258c.543,.0703,1.0703,.1055,1.6094,.1055l-.0004-.0005Z" style="fill:#f9f871;"/><path d="M717.721,654.6502c-4.0195,5.2695-3,12.805,2.2695,16.812l41.52,31.633c2.1719,1.6562,4.7266,2.4609,7.2617,2.4609,3.625,0,7.1992-1.6328,9.5508-4.7266,4.0195-5.2695,3-12.805-2.2695-16.812l-41.52-31.633c-5.2812-4.0469-12.793-3.0039-16.812,2.2656h-.0005Z" style="fill:#f9f871;"/><path d="M661.801,698.1101c-6.0977,2.5938-8.9414,9.6367-6.3477,15.742l20.41,48.047c1.9453,4.5703,6.3828,7.3086,11.051,7.3086,1.5586,0,3.1562-.3125,4.6914-.9609,6.0977-2.5938,8.9414-9.6367,6.3477-15.742l-20.41-48.047c-2.5938-6.1094-9.6367-8.9414-15.742-6.3477h-.0004Z" style="fill:#f9f871;"/><path d="M480.621,743.5802c2.1484,1.5703,4.6328,2.3398,7.1055,2.3398,3.6836,0,7.3203-1.6914,9.6719-4.8828l30.949-42.047c3.9375-5.3398,2.7852-12.852-2.543-16.777-5.3281-3.9258-12.852-2.7852-16.777,2.543l-30.949,42.047c-3.9336,5.3438-2.7969,12.855,2.543,16.777h-.0004Z" style="fill:#f9f871;"/><path d="M481.411,627.0101c-2.6992-6.0586-9.793-8.8086-15.84-6.0859l-47.711,21.203c-6.0469,2.6875-8.7852,9.7812-6.0859,15.84,1.9922,4.4766,6.3711,7.1289,10.969,7.1289,1.6328,0,3.2891-.3359,4.8711-1.043l47.711-21.203c6.0508-2.6875,8.7734-9.7812,6.0859-15.84h0Z" style="fill:#f9f871;"/><path d="M394.351,549.4901c-.6602,6.6016,4.1523,12.48,10.754,13.141l51.949,5.1953c.4062,.0352,.8047,.0586,1.2109,.0586,6.0977,0,11.305-4.6211,11.93-10.801,.6602-6.6016-4.1523-12.48-10.754-13.141l-51.949-5.1953c-6.6133-.6211-12.48,4.1523-13.141,10.742v.0004Z" style="fill:#f9f871;"/><path d="M449.661,443.7901c-5.4102-3.8398-12.898-2.5781-16.727,2.832-3.8398,5.3984-2.5664,12.887,2.832,16.727l42.551,30.238c2.1133,1.5,4.5352,2.2188,6.9375,2.2188,3.7578,0,7.4531-1.7539,9.793-5.0508,3.8398-5.3984,2.5664-12.887-2.832-16.727l-42.5546-30.238Z" style="fill:#f9f871;"/><path d="M544.431,446.5701c1.6914,0,3.4219-.3594,5.0508-1.1172,6.0117-2.7852,8.6172-9.9258,5.8203-15.938l-21.996-47.34c-2.7969-6.0117-9.9375-8.6172-15.938-5.8203-6.0117,2.7852-8.6172,9.9258-5.8203,15.938l21.996,47.34c2.0312,4.3711,6.3633,6.9375,10.887,6.9375h.0002Z" style="fill:#f9f871;"/><path d="M78.781,.0001C72.156,.0001,66.781,5.3751,66.781,12.0001V101.1601H12c-6.625,0-12,5.375-12,12V254.6801c0,81.348,63.637,147.94,143.71,153.04v320.83c.0039,127.62,103.83,231.46,231.46,231.46s231.46-103.84,231.46-231.46c0-6.625-5.375-12-12-12s-12,5.375-12,12c-.0039,114.4-93.074,207.46-207.46,207.46s-207.46-93.059-207.46-207.46V407.49c78.023-7.1875,139.33-72.949,139.33-152.81V113.16c0-6.625-5.375-12-12-12h-54.781V12c0-6.625-5.375-12-12-12s-12,5.375-12,12V101.16H90.779V12c0-6.625-5.375-12-12-12h.002Zm204.27,254.6801c0,71.426-58.105,129.53-129.53,129.53S24.001,326.1051,24.001,254.6801V125.1601H283.041l.01,129.52Z" style="fill:#f9f871;"/></svg>