<svg width="31" height="31" viewBox="0 0 31 31" fill="none" xmlns="http://www.w3.org/2000/svg">
<path d="M27.4616 0.26709H4.11008C2.35208 0.26709 0.925781 1.70731 0.925781 3.48246V27.0619C0.925781 28.837 2.35208 30.2772 4.11008 30.2772H27.4616C29.2196 30.2772 30.6459 28.837 30.6459 27.0619V3.48246C30.6459 1.70731 29.2196 0.26709 27.4616 0.26709ZM24.2176 10.9046C24.2308 11.0922 24.2308 11.2864 24.2308 11.474C24.2308 17.2818 19.8524 23.9738 11.8519 23.9738C9.38406 23.9738 7.09535 23.2503 5.17151 22.0044C5.52311 22.0445 5.86144 22.0579 6.21967 22.0579C8.25629 22.0579 10.1271 21.3613 11.6197 20.1823C9.70913 20.1421 8.10371 18.8761 7.55309 17.1344C8.22312 17.2349 8.82681 17.2349 9.51674 17.054C7.52656 16.6454 6.03392 14.8769 6.03392 12.7401V12.6865C6.61107 13.0147 7.28774 13.2157 7.99757 13.2425C7.4008 12.8416 6.91158 12.2979 6.57357 11.6597C6.23556 11.0215 6.05928 10.3087 6.06046 9.58497C6.06046 8.76773 6.27274 8.01748 6.65088 7.36771C8.79364 10.0338 12.0111 11.7754 15.62 11.963C15.003 8.98209 17.2121 6.56386 19.8657 6.56386C21.1195 6.56386 22.2473 7.09306 23.0434 7.95049C24.0252 7.76293 24.9672 7.3945 25.8031 6.8921C25.478 7.9103 24.7947 8.76773 23.8925 9.31033C24.7682 9.21655 25.6173 8.96869 26.4001 8.62706C25.8097 9.50459 25.0667 10.2816 24.2176 10.9046Z" fill="white"/>
</svg>
